<?xml version="1.0" encoding="UTF-8"?>
<svg xmlns="http://www.w3.org/2000/svg" xmlns:xlink="http://www.w3.org/1999/xlink" width="300" height="162" viewBox="0 0 288 288" version="1.1">
<g id="surface1">
<path style=" stroke:none;fill-rule:nonzero;fill:rgb(13.699341%,12.199402%,12.5%);fill-opacity:1;" d="M 23.074219 22.988281 L 264.992188 22.988281 L 264.992188 39.199219 L 288 39.199219 L 288 0 L 0 0 L 0 156.074219 L 23.074219 156.074219 L 23.074219 22.988281 "/>
<path style=" stroke:none;fill-rule:nonzero;fill:rgb(13.699341%,12.199402%,12.5%);fill-opacity:1;" d="M 264.992188 82.230469 L 264.992188 193.023438 L 288 226.71875 L 288 48.289063 L 264.992188 82.230469 "/>
<path style=" stroke:none;fill-rule:nonzero;fill:rgb(13.699341%,12.199402%,12.5%);fill-opacity:1;" d="M 287.996094 248.964844 L 264.992188 248.964844 L 264.992188 265.128906 L 23.074219 265.128906 L 23.074219 235.808594 L 0 222.382813 L 0 288 L 288 288 L 288 248.964844 L 287.996094 248.964844 "/>
<path style=" stroke:none;fill-rule:nonzero;fill:rgb(13.699341%,12.199402%,12.5%);fill-opacity:1;" d="M 217.507813 137.71875 C 217.507813 137.71875 277.765625 49.160156 279.0625 47.222656 C 275.019531 47.222656 206.894531 47.222656 206.894531 47.222656 L 159.636719 128.464844 C 159.636719 128.464844 159.636719 76.96875 159.636719 47.222656 C 135.667969 47.222656 88.261719 47.222656 88.261719 47.222656 L 88.261719 204.046875 L 70.300781 204.046875 L 70.300781 164.09375 L 0 164.09375 L 0 213.105469 L 47.851563 240.945313 L 159.636719 240.945313 L 159.644531 158.691406 L 216.335938 240.945313 L 287.996094 240.945313 L 217.507813 137.71875 "/>
</g>
</svg>
